Coordinates
version=1
nRows=34
nColumns=38
inDegrees=no

Units are S.I. units (second, meters, Newtons, ...)
If the header above contains a line with 'inDegrees', this indicates whether rotational values are in degrees (yes) or radians (no).

endheader
time	pelvis_tilt	pelvis_list	pelvis_rotation	pelvis_tx	pelvis_ty	pelvis_tz	hip_flexion_r	hip_adduction_r	hip_rotation_r	knee_angle_r	ankle_angle_r	subtalar_angle_r	mtp_angle_r	hip_flexion_l	hip_adduction_l	hip_rotation_l	knee_angle_l	ankle_angle_l	subtalar_angle_l	mtp_angle_l	lumbar_extension	lumbar_bending	lumbar_rotation	arm_flex_r	arm_add_r	arm_rot_r	elbow_flex_r	pro_sup_r	wrist_flex_r	wrist_dev_r	arm_flex_l	arm_add_l	arm_rot_l	elbow_flex_l	pro_sup_l	wrist_flex_l	wrist_dev_l
0	-3.09997	1.37473	-1.46361	0.561472	-0.474901	0.950265	0.352195	-0.158543	-0.231333	0.767758	0.112802	0	0	-0.245891	-0.0122223	-0.124157	0.164197	0.194545	0	0	-0.317065	-0.0239219	-0.219264	-0.127684	-0.170849	0.130599	0.517436	0.434961	0	0	-0.0552319	-0.4075	0.35964	0.750678	1.26059	0	0
0.01	-3.09609	1.37706	-1.46585	0.560417	-0.466328	0.949349	0.360066	-0.158539	-0.247596	0.723139	0.116768	0	0	-0.262793	-0.0101221	-0.114773	0.146334	0.195108	0	0	-0.316091	-0.0240002	-0.220729	-0.123365	-0.17172	0.13443	0.522205	0.433899	0	0	-0.0503524	-0.411212	0.351566	0.754977	1.26197	0	0
0.02	-3.09359	1.37842	-1.46724	0.559432	-0.457679	0.94833	0.365566	-0.157417	-0.265869	0.676222	0.118384	0	0	-0.279561	-0.0086727	-0.108646	0.130998	0.197048	0	0	-0.315858	-0.0238403	-0.220275	-0.119453	-0.173046	0.138509	0.526952	0.432343	0	0	-0.0435425	-0.414452	0.34666	0.757693	1.26197	0	0
0.03	-3.08668	1.38024	-1.47337	0.558546	-0.449058	0.947071	0.371154	-0.156293	-0.283384	0.629473	0.120024	0	0	-0.295348	-0.006478	-0.102936	0.116851	0.199764	0	0	-0.315536	-0.0246347	-0.219351	-0.115642	-0.174498	0.142616	0.532133	0.4302	0	0	-0.0368543	-0.417737	0.341924	0.760671	1.26147	0	0
0.04	-3.06332	1.38298	-1.49042	0.558053	-0.440467	0.945514	0.378373	-0.148903	-0.290918	0.583869	0.115318	0	0	-0.308857	-0.00896316	-0.107694	0.104239	0.208873	0	0	-0.31466	-0.0292973	-0.219224	-0.114779	-0.173652	0.142954	0.537366	0.427994	0	0	-0.025975	-0.422311	0.341535	0.761793	1.25906	0	0
0.05	-3.05361	1.3861	-1.50066	0.55746	-0.431946	0.943795	0.383763	-0.147784	-0.30338	0.535297	0.120077	0	0	-0.320202	-0.00679978	-0.105787	0.0965856	0.215047	0	0	-0.314017	-0.030846	-0.217303	-0.110494	-0.174517	0.144469	0.542624	0.426689	0	0	-0.0190354	-0.425319	0.336931	0.764312	1.25691	0	0
0.06	-3.04356	1.38956	-1.51212	0.557062	-0.423334	0.941877	0.388424	-0.144813	-0.311873	0.485897	0.127059	0	0	-0.330679	-0.00468489	-0.105518	0.09029	0.22206	0	0	-0.312866	-0.0327025	-0.213902	-0.106973	-0.175195	0.144269	0.548215	0.426382	0	0	-0.0113579	-0.427892	0.333312	0.765818	1.25491	0	0
0.07	-3.02908	1.39342	-1.52861	0.556797	-0.414673	0.939763	0.392972	-0.141309	-0.31631	0.43733	0.135774	0	0	-0.340152	-0.00177072	-0.106085	0.0853371	0.229549	0	0	-0.311311	-0.0354756	-0.209566	-0.103826	-0.175538	0.142186	0.553641	0.426847	0	0	-0.00316679	-0.430513	0.332167	0.766751	1.25002	0	0
0.08	-3.00699	1.39817	-1.55303	0.55655	-0.406034	0.937434	0.398554	-0.138897	-0.317828	0.390786	0.144517	0	0	-0.347417	0.00247931	-0.107392	0.0829441	0.237861	0	0	-0.308915	-0.0394132	-0.205316	-0.100427	-0.176061	0.140296	0.558466	0.427247	0	0	0.00499103	-0.432733	0.331364	0.766952	1.2458	0	0
0.09	-2.98677	1.40201	-1.57512	0.55631	-0.397313	0.935137	0.401358	-0.135149	-0.314793	0.343252	0.150576	0	0	-0.355142	0.00588224	-0.108605	0.081662	0.246564	0	0	-0.307438	-0.0425186	-0.201097	-0.097475	-0.17659	0.136679	0.563862	0.428022	0	0	0.0138136	-0.434191	0.331165	0.765816	1.23987	0	0
0.1	-2.96473	1.40572	-1.5995	0.55607	-0.388585	0.932799	0.402902	-0.130922	-0.306244	0.295884	0.153282	0	0	-0.362355	0.00958105	-0.110486	0.0816153	0.25559	0	0	-0.306147	-0.0454492	-0.196233	-0.094925	-0.177125	0.130021	0.57013	0.430032	0	0	0.0236213	-0.434621	0.332045	0.762466	1.23098	0	0
0.11	-2.94924	1.40777	-1.61623	0.55593	-0.379633	0.930593	0.400226	-0.125169	-0.29258	0.248965	0.153609	0	0	-0.370999	0.0111991	-0.113095	0.0824808	0.26495	0	0	-0.306246	-0.0469662	-0.192466	-0.0922818	-0.177581	0.123751	0.575682	0.43394	0	0	0.0331374	-0.435159	0.333603	0.757984	1.22376	0	0
0.12	-2.93981	1.40903	-1.62576	0.555814	-0.370435	0.928452	0.394527	-0.118787	-0.275276	0.203939	0.149705	0	0	-0.380163	0.0109257	-0.116007	0.0847204	0.274789	0	0	-0.306932	-0.0470276	-0.189873	-0.0898429	-0.17801	0.117255	0.580545	0.440186	0	0	0.0419864	-0.435349	0.335265	0.752835	1.21647	0	0
0.13	-2.92186	1.41646	-1.64449	0.55538	-0.360464	0.925597	0.397569	-0.11588	-0.263668	0.169993	0.147553	0	0	-0.383587	0.0122895	-0.119348	0.0866459	0.285177	0	0	-0.298383	-0.047566	-0.187067	-0.0897119	-0.179387	0.110292	0.584036	0.443518	0	0	0.0475836	-0.432445	0.334132	0.744726	1.21352	0	0
0.14	-2.90325	1.41841	-1.66141	0.555097	-0.351001	0.92329	0.395208	-0.114867	-0.255395	0.143858	0.144959	0	0	-0.390148	0.0124048	-0.121416	0.0924788	0.295938	0	0	-0.297649	-0.0481342	-0.186618	-0.0880476	-0.18004	0.104188	0.588583	0.445364	0	0	0.0551034	-0.431898	0.335182	0.739117	1.2111	0	0
0.15	-2.89113	1.41935	-1.66998	0.554673	-0.341236	0.921138	0.391892	-0.114699	-0.252251	0.127059	0.144867	0	0	-0.398018	0.0106709	-0.122309	0.0984547	0.305867	0	0	-0.297577	-0.0471201	-0.187824	-0.0868373	-0.180972	0.0989453	0.592506	0.447004	0	0	0.0617222	-0.431028	0.336445	0.733044	1.20915	0	0
0.16	-2.88596	1.41942	-1.67024	0.554113	-0.331237	0.919155	0.38744	-0.114713	-0.250817	0.118253	0.145077	0	0	-0.406773	0.0071715	-0.123242	0.105207	0.315785	0	0	-0.298367	-0.0443808	-0.190646	-0.0856032	-0.181909	0.0924946	0.596056	0.448809	0	0	0.0672585	-0.429561	0.33695	0.726555	1.20747	0	0
0.17	-2.88252	1.41932	-1.66781	0.553425	-0.321038	0.917283	0.384099	-0.115832	-0.252518	0.119828	0.145519	0	0	-0.415452	0.00299941	-0.123855	0.112679	0.324927	0	0	-0.299074	-0.040903	-0.194369	-0.0846422	-0.182885	0.0850548	0.599093	0.45117	0	0	0.0719827	-0.427794	0.338021	0.72014	1.20641	0	0
0.18	-2.87817	1.41919	-1.66536	0.552648	-0.310614	0.915522	0.38247	-0.118564	-0.258163	0.13212	0.146191	0	0	-0.423941	-0.0015447	-0.123782	0.120732	0.332856	0	0	-0.299346	-0.0370947	-0.199502	-0.0839614	-0.183985	0.0779769	0.601872	0.453899	0	0	0.0750101	-0.425944	0.33882	0.714538	1.20612	0	0
0.19	-2.87123	1.41931	-1.66452	0.551811	-0.299908	0.913843	0.382764	-0.123165	-0.267295	0.154804	0.147934	0	0	-0.431551	-0.00637312	-0.123262	0.130096	0.339772	0	0	-0.298902	-0.0333161	-0.20596	-0.083847	-0.185017	0.0712861	0.604604	0.456356	0	0	0.0763323	-0.423959	0.338954	0.709294	1.20685	0	0
0.2	-2.85896	1.41985	-1.66814	0.55096	-0.288876	0.912195	0.384101	-0.129541	-0.277033	0.185421	0.15134	0	0	-0.437919	-0.0111555	-0.122453	0.141082	0.345784	0	0	-0.297484	-0.0302019	-0.213819	-0.0843492	-0.185907	0.0656264	0.606952	0.458681	0	0	0.0755742	-0.422184	0.337952	0.705752	1.20842	0	0
0.21	-2.8429	1.4209	-1.67486	0.550137	-0.277531	0.910601	0.38522	-0.136564	-0.286027	0.220033	0.155459	0	0	-0.443026	-0.016185	-0.121424	0.15359	0.350786	0	0	-0.294909	-0.0276388	-0.222724	-0.0856414	-0.186749	0.061219	0.608769	0.461133	0	0	0.0729044	-0.420497	0.335834	0.702945	1.21094	0	0
0.22	-2.82528	1.42248	-1.68298	0.549464	-0.265946	0.909096	0.385093	-0.142823	-0.294897	0.253442	0.160206	0	0	-0.446591	-0.0218304	-0.121036	0.168055	0.35472	0	0	-0.291336	-0.0254328	-0.231863	-0.0873596	-0.187209	0.0575491	0.610322	0.46291	0	0	0.0686653	-0.419401	0.333844	0.701409	1.21423	0	0
0.23	-2.80958	1.42461	-1.68916	0.548945	-0.254112	0.907735	0.382999	-0.147456	-0.304954	0.280532	0.168083	0	0	-0.448773	-0.0286547	-0.121656	0.184425	0.357376	0	0	-0.286776	-0.0229922	-0.240877	-0.0893432	-0.187539	0.0548171	0.611288	0.464165	0	0	0.0631258	-0.418548	0.332517	0.70025	1.21827	0	0
0.24	-2.80375	1.42696	-1.68618	0.548686	-0.242194	0.906693	0.379239	-0.148601	-0.314797	0.298295	0.174123	0	0	-0.449712	-0.0375457	-0.123491	0.203071	0.358113	0	0	-0.282384	-0.0190893	-0.249299	-0.0906871	-0.188017	0.0536897	0.611048	0.465151	0	0	0.0567542	-0.417519	0.330717	0.699396	1.22267	0	0
0.25	-2.81645	1.42922	-1.66659	0.548798	-0.23039	0.906107	0.373565	-0.144094	-0.320502	0.303737	0.164709	0	0	-0.449095	-0.0491233	-0.127656	0.225262	0.357163	0	0	-0.279204	-0.0127066	-0.255104	-0.0908742	-0.188841	0.0536273	0.609324	0.465828	0	0	0.0515157	-0.415313	0.32833	0.69676	1.22747	0	0
0.26	-2.85511	1.43253	-1.62252	0.549406	-0.218701	0.905759	0.36501	-0.132325	-0.322547	0.295508	0.135272	0	0	-0.437804	-0.0675665	-0.146348	0.267986	0.361998	0	0	-0.275966	-0.00284619	-0.258668	-0.0900654	-0.18965	0.0538785	0.606418	0.465698	0	0	0.0466935	-0.412826	0.326179	0.693756	1.23233	0	0
0.27	-2.89398	1.43507	-1.58129	0.550228	-0.206605	0.905848	0.352551	-0.119444	-0.325978	0.281104	0.100262	0	0	-0.438315	-0.0808455	-0.147189	0.286844	0.352686	0	0	-0.272596	0.00628252	-0.258708	-0.089913	-0.190875	0.0534826	0.602498	0.465025	0	0	0.041834	-0.40868	0.323785	0.68873	1.23732	0	0
0.28	-2.93657	1.4378	-1.53738	0.55129	-0.194287	0.906004	0.340816	-0.107156	-0.331808	0.272154	0.0745872	0	0	-0.431292	-0.0965823	-0.15648	0.320338	0.344078	0	0	-0.268311	0.0152528	-0.25693	-0.090953	-0.192171	0.052513	0.598873	0.464051	0	0	0.036835	-0.404493	0.322241	0.683489	1.24271	0	0
0.29	-2.9688	1.43959	-1.50568	0.552414	-0.181661	0.906478	0.332513	-0.0986996	-0.337703	0.27582	0.0615551	0	0	-0.42997	-0.106593	-0.152295	0.342453	0.325729	0	0	-0.264359	0.0224102	-0.253504	-0.0928118	-0.193881	0.0516884	0.595356	0.462641	0	0	0.0310848	-0.400048	0.321473	0.678518	1.24797	0	0
0.3	-3.0109	1.44197	-1.46329	0.553404	-0.169111	0.906967	0.330591	-0.0924298	-0.34349	0.293166	0.0577799	0	0	-0.410232	-0.125834	-0.171226	0.400595	0.313712	0	0	-0.259472	0.0312451	-0.250489	-0.0947181	-0.196493	0.0518103	0.592097	0.459863	0	0	0.0252996	-0.395554	0.322632	0.674017	1.2525	0	0
0.31	-3.06017	1.44417	-1.41563	0.554471	-0.156503	0.907819	0.331832	-0.0868497	-0.346648	0.317936	0.0587726	0	0	-0.392636	-0.142077	-0.177863	0.451597	0.290133	0	0	-0.254316	0.0407251	-0.245268	-0.0963894	-0.200051	0.0534324	0.587886	0.454982	0	0	0.0196371	-0.389941	0.324384	0.668661	1.25561	0	0
0.32	-3.12231	1.44658	-1.35685	0.555739	-0.144061	0.90891	0.333843	-0.080116	-0.350085	0.342691	0.0614715	0	0	-0.370144	-0.159084	-0.182456	0.507505	0.258528	0	0	-0.248887	0.0513209	-0.2377	-0.0975758	-0.204461	0.05745	0.583182	0.447551	0	0	0.0145764	-0.383672	0.326514	0.663161	1.25777	0	0
0.33	3.07711	1.45253	-1.27753	0.55727	-0.131816	0.909716	0.339037	-0.0717327	-0.35524	0.363607	0.064381	0	0	-0.336525	-0.178264	-0.186687	0.572591	0.218529	0	0	-0.238734	0.0627784	-0.229114	-0.0987199	-0.210095	0.0679484	0.577924	0.433171	0	0	0.00897035	-0.377159	0.328818	0.657837	1.26004	0	0
